<?xml version="1.0" encoding="UTF-8" standalone="no"?>
<svg width="108px" height="170px" viewBox="0 0 108 170" version="1.1" xmlns="http://www.w3.org/2000/svg" xmlns:xlink="http://www.w3.org/1999/xlink">
    <title>Your Book</title>
    <defs>
        <path d="M75.829299,8.37722951 L70.3292879,8.37697162 L70.3292879,2.81910648 C70.3292879,1.54665942 69.3755898,0.465569418 68.0863803,0.277307085 C67.861297,0.244296703 62.5031518,-0.515457865 56.0510278,0.630621327 C48.8581366,1.90822626 43.1216824,5.05891246 39.2310698,9.8219495 C35.3401931,5.05891246 29.6037389,1.90822626 22.4111119,0.630621327 C15.9587237,-0.515199971 10.6005785,0.244296703 10.3757594,0.277307085 C9.08654981,0.465827312 8.13285175,1.54691732 8.13285175,2.81910648 L8.13285175,8.37697162 L2.63284069,8.37697162 C1.17904555,8.37697162 1.13686838e-12,9.52795079 1.13686838e-12,10.9473972 L1.13686838e-12,59.3811062 C1.13686838e-12,60.2133289 0.412652735,60.9939728 1.10771634,61.4762338 C1.80277994,61.9584949 2.69386679,62.0822838 3.49883023,61.8084008 C3.69643858,61.7416064 23.4263644,55.1684141 38.1384119,61.7194275 C38.8326829,62.028642 39.6297209,62.028642 40.323992,61.7194275 C54.994827,55.1869824 74.767022,61.7421222 74.9635736,61.8084008 C75.2457203,61.9043372 75.5379059,61.9515318 75.8290348,61.9515318 C76.3687592,61.9515318 76.9029358,61.7895746 77.3546875,61.4764917 C78.0497511,60.9942307 78.4624038,60.2135867 78.4624038,59.3813641 L78.4624038,10.9476551 C78.4621397,9.52820868 77.2833583,8.37722951 75.829299,8.37722951 Z M5.26594555,55.9420949 L5.26594555,13.5175649 L8.13285175,13.5175649 L8.13285175,47.7467519 C8.13285175,48.4936117 8.46757071,49.2028192 9.0463941,49.6910118 C9.6252175,50.1792044 10.3950447,50.398156 11.1516628,50.289067 C11.296963,50.2684356 22.7349994,48.735516 31.0916135,54.3325809 C20.7977507,52.6142358 10.4951698,54.6018218 5.26594555,55.9420949 Z M36.5982291,52.0146332 C32.9176415,48.7682684 28.1235255,46.5730781 22.4111119,45.5585246 C19.662031,45.0700741 17.1116152,44.9277168 15.0721279,44.9277168 C14.4666221,44.9277168 13.9060273,44.9403536 13.3990615,44.9602114 L13.3990615,5.17934878 L13.3987973,5.17934878 C18.459209,4.9565287 30.7693111,5.48469481 36.5982291,15.1306894 L36.5982291,52.0146332 Z M41.8639105,15.1309473 C47.6719581,5.52621568 60.0013455,4.97406547 65.0633424,5.18579612 L65.0633424,44.9602114 C62.8487022,44.8730434 59.6159036,44.9251379 56.0510278,45.5585246 C50.3386141,46.5730781 45.5444982,48.7680105 41.8639105,52.0146332 L41.8639105,15.1309473 Z M47.3618081,54.3341283 C55.719479,48.7337107 67.1635915,50.2681777 67.30625,50.2888092 C68.0647173,50.3999613 68.8340162,50.1822991 69.4146888,49.6943644 C69.9953615,49.2059139 70.3292879,48.4951591 70.3292879,47.7467519 L70.3292879,13.5178228 L73.1961941,13.5178228 L73.1961941,55.9420949 C67.9653848,54.6013061 57.658577,52.6129463 47.3618081,54.3341283 Z" id="path-1"></path>
        <mask id="mask-2" maskContentUnits="userSpaceOnUse" maskUnits="objectBoundingBox" x="0" y="0" width="78.4624038" height="61.9515318" fill="white">
            <use xlink:href="#path-1"></use>
        </mask>
    </defs>
    <g id="Author-QA" stroke="none" stroke-width="1" fill="none" fill-rule="evenodd">
        <g id="About-Your-Book-&gt;1170px" transform="translate(-65.000000, -171.000000)">
            <g id="Group-15" transform="translate(65.000000, 171.000000)">
                <g id="Group-5">
                    <rect id="Rectangle" fill="#F4F4F4" x="0" y="0" width="108" height="170"></rect>
                    <g id="Group-12" transform="translate(15.000000, 30.000000)">
                        <use id="Shape" stroke="#F5F5F5" mask="url(#mask-2)" stroke-width="2" fill="#8C8F93" fill-rule="nonzero" xlink:href="#path-1"></use>
                        <rect id="Rectangle-2" fill="#DCDCDC" x="2" y="102" width="75" height="3"></rect>
                        <rect id="Rectangle-2" fill="#DCDCDC" x="2" y="108" width="75" height="3"></rect>
                        <rect id="Rectangle-2" fill="#DCDCDC" x="2" y="90" width="75" height="3"></rect>
                        <rect id="Rectangle-2" fill="#DCDCDC" x="2" y="96" width="75" height="3"></rect>
                        <text id="Your-Book" font-family="Lato, Lato" font-size="14" font-weight="normal" letter-spacing="1.01111102" fill="#8C8F93">
                            <tspan x="3" y="83">Your Book</tspan>
                        </text>
                    </g>
                </g>
            </g>
        </g>
    </g>
</svg>