<?xml version="1.0" encoding="UTF-8"?>
<svg width="37px" height="22px" viewBox="0 0 37 22" version="1.1" xmlns="http://www.w3.org/2000/svg" xmlns:xlink="http://www.w3.org/1999/xlink">
    <!-- Generator: Sketch 49.3 (51167) - http://www.bohemiancoding.com/sketch -->
    <title>Page 1</title>
    <desc>Created with Sketch.</desc>
    <defs></defs>
    <g id="Brainstorming-Demo-UPDATE" stroke="none" stroke-width="1" fill="none" fill-rule="evenodd">
        <g id="View-Order-by-Status" transform="translate(-333.000000, -600.000000)">
            <g id="Recent-Shipments" transform="translate(136.000000, 580.000000)">
                <g id="Page-1" transform="translate(197.000000, 20.000000)">
                    <path d="M35.8414352,13.3975549 L35.1848285,13.3975549 C34.822777,13.3975549 34.5282217,13.1314682 34.5282217,12.8044088 L34.5282217,12.2112627 L35.841363,12.2112627 L35.841363,13.3975549 L35.8414352,13.3975549 Z M30.8591443,20.0963323 C29.4748935,20.0963323 28.3487038,19.0790535 28.3487038,17.8285245 C28.3487038,16.5779955 29.4748935,15.5607167 30.8591443,15.5607167 C32.243395,15.5607167 33.3695847,16.5779955 33.3695847,17.8285245 C33.3695847,19.0790535 32.243395,20.0963323 30.8591443,20.0963323 Z M10.4666122,20.0963323 C9.08236149,20.0963323 7.95617179,19.0790535 7.95617179,17.8285245 C7.95617179,16.5779955 9.08236149,15.5607167 10.4666122,15.5607167 C11.850863,15.5607167 12.9770527,16.5779955 12.9770527,17.8285245 C12.9770527,19.0790535 11.850863,20.0963323 10.4666122,20.0963323 Z M27.1128147,8.931725 L27.1128147,5.51255055 L32.2606665,5.51255055 L33.2069145,8.931725 L27.1128147,8.931725 Z M27.1128147,3.27966827 L31.4770888,3.27966827 C32.1798734,3.27966827 32.7516401,3.79617407 32.7516401,4.43103492 L32.7516401,4.46589514 L27.1128147,4.46589514 L27.1128147,3.27966827 Z M34.4099227,8.9631906 L33.4517509,5.50099576 C33.7137143,5.45072914 33.9102772,5.24078442 33.9102772,4.98925549 L33.9102772,4.43103492 C33.9102772,3.21902192 32.8187028,2.23301285 31.4770888,2.23301285 L27.1128147,2.23301285 L27.1128147,1.08158092 C27.1128147,0.485170775 26.5757355,0 25.9155155,0 L3.66907748,0 C3.00885744,0 2.47177827,0.485170775 2.47177827,1.08158092 L2.47177827,10.5715265 C2.47177827,10.8605269 2.7311401,11.0948868 3.05113291,11.0948868 C3.37105346,11.0948868 3.63048756,10.8605922 3.63048756,10.5715265 L3.63048756,1.08158092 C3.63048756,1.06232293 3.64775908,1.04672069 3.66907748,1.04672069 L25.9154432,1.04672069 C25.9367616,1.04672069 25.9540331,1.06232293 25.9540331,1.08158092 L25.9540331,10.5716571 C25.9540331,10.8606575 26.2133949,11.0950174 26.5333878,11.0950174 C26.8533083,11.0950174 27.1127424,10.8607227 27.1127424,10.5716571 L27.1127424,9.97838041 L33.9468436,9.97838041 C33.9474218,9.97838041 33.9478554,9.97851098 33.9483612,9.97851098 C33.9489394,9.97851098 33.9494452,9.9784457 33.9499511,9.9784457 C34.7909078,9.97896795 35.5049658,10.4775867 35.7502358,11.1646726 L33.9487948,11.1646726 C33.6288743,11.1646726 33.3694402,11.3989672 33.3694402,11.6880329 L33.3694402,12.8044741 C33.3694402,13.7086856 34.1837308,14.4442756 35.184684,14.4442756 L35.8412907,14.4442756 L35.8412907,16.7469436 L34.3264557,16.7469436 C33.8288337,15.4489551 32.4629384,14.513996 30.8589997,14.513996 C29.255061,14.513996 27.8890935,15.4489551 27.3915437,16.7469436 L27.1125979,16.7469436 L27.1125979,12.8044088 C27.1125979,12.5154084 26.853236,12.2810484 26.5332432,12.2810484 C26.2133227,12.2810484 25.9538886,12.5153431 25.9538886,12.8044088 L25.9538886,16.746813 L13.9340682,16.746813 C13.4364462,15.4488245 12.0705509,14.5138654 10.4666122,14.5138654 C8.86267356,14.5138654 7.49670605,15.4488245 6.99915625,16.746813 L3.66907748,16.746813 C3.64775908,16.746813 3.63048756,16.7312108 3.63048756,16.7119528 L3.63048756,15.5605861 L6.14092801,15.5605861 C6.46084856,15.5605861 6.72028266,15.3262915 6.72028266,15.0372258 C6.72028266,14.7481601 6.46092082,14.5138654 6.14092801,14.5138654 L0.579354647,14.5138654 C0.2594341,14.5138654 0,14.7481601 0,15.0372258 C0,15.3262915 0.259361835,15.5605861 0.579354647,15.5605861 L2.47185053,15.5605861 L2.47185053,16.7119528 C2.47185053,17.3083629 3.0089297,17.7935337 3.66914974,17.7935337 L6.79854648,17.7935337 C6.79840195,17.8051538 6.79753476,17.8167086 6.79753476,17.8283939 C6.79753476,19.6560098 8.44353212,21.1428571 10.4666122,21.1428571 C12.4896924,21.1428571 14.1356897,19.6560098 14.1356897,17.8283939 C14.1356897,17.8166433 14.1348225,17.8051538 14.134678,17.7935337 L27.190934,17.7935337 C27.1907894,17.8051538 27.1899222,17.8167086 27.1899222,17.8283939 C27.1899222,19.6560098 28.8359196,21.1428571 30.8589997,21.1428571 C32.8820798,21.1428571 34.5280772,19.6560098 34.5280772,17.8283939 C34.5280772,17.8166433 34.52721,17.8051538 34.5270655,17.7935337 L36.4206454,17.7935337 C36.7405659,17.7935337 37,17.559239 37,17.2701734 L37,11.6879024 C37.0000723,10.3096831 35.8743884,9.16458347 34.4099227,8.9631906 Z" id="Fill-1" fill="#4E99C2"></path>
                    <path d="M10.5714286,16.9142857 C9.98849417,16.9142857 9.51428571,17.3884942 9.51428571,17.9714286 C9.51428571,18.554363 9.98849417,19.0285714 10.5714286,19.0285714 C11.154363,19.0285714 11.6285714,18.554363 11.6285714,17.9714286 C11.6285714,17.3884942 11.154363,16.9142857 10.5714286,16.9142857" id="Fill-3" fill="#4E99C2"></path>
                    <path d="M30.6571429,16.9142857 C30.0742085,16.9142857 29.6,17.3884942 29.6,17.9714286 C29.6,18.554363 30.0742085,19.0285714 30.6571429,19.0285714 C31.2400773,19.0285714 31.7142857,18.554363 31.7142857,17.9714286 C31.7142857,17.3884942 31.2400773,16.9142857 30.6571429,16.9142857" id="Fill-5" fill="#4E99C2"></path>
                    <path d="M23.7523997,13.7428571 L15.361886,13.7428571 C15.0516117,13.7428571 14.8,13.9321592 14.8,14.1657143 C14.8,14.3992694 15.0515416,14.5885714 15.361886,14.5885714 L23.7523997,14.5885714 C24.062674,14.5885714 24.3142857,14.3992694 24.3142857,14.1657143 C24.3142857,13.9321592 24.0627441,13.7428571 23.7523997,13.7428571" id="Fill-7" fill="#4E99C2"></path>
                    <path d="M8.9428398,12.6857143 L1.62858877,12.6857143 C1.31303544,12.6857143 1.05714286,12.8750163 1.05714286,13.1085714 C1.05714286,13.3421266 1.31296416,13.5314286 1.62858877,13.5314286 L8.9428398,13.5314286 C9.25839313,13.5314286 9.51428571,13.3421266 9.51428571,13.1085714 C9.51428571,12.8750163 9.25839313,12.6857143 8.9428398,12.6857143" id="Fill-9" fill="#4E99C2"></path>
                    <path d="M19.9211926,5.44582316 C19.7018186,5.2323333 19.3459842,5.2323333 19.1266103,5.44589137 L14.1299301,10.3084811 L11.5305939,7.77886493 C11.3111499,7.56530686 10.9553856,7.56530686 10.7360116,7.77886493 C10.5165676,7.992423 10.5165676,8.33857669 10.7360116,8.55213476 L13.732674,11.4684199 C13.842361,11.5752331 13.9861806,11.6285714 14.1299301,11.6285714 C14.2736796,11.6285714 14.4175693,11.5752331 14.5271862,11.4684199 L19.9211225,6.2191612 C20.1405665,6.00553492 20.1405665,5.65938123 19.9211926,5.44582316" id="Fill-11" fill="#1CBB39"></path>
                </g>
            </g>
        </g>
    </g>
</svg>