<?xml version="1.0" encoding="UTF-8"?>
<svg width="30px" height="28px" viewBox="0 0 30 28" version="1.1" xmlns="http://www.w3.org/2000/svg" xmlns:xlink="http://www.w3.org/1999/xlink">
    <!-- Generator: Sketch 49.3 (51167) - http://www.bohemiancoding.com/sketch -->
    <title>Page 1</title>
    <desc>Created with Sketch.</desc>
    <defs>
        <polygon id="path-1" points="0 0.036774236 30 0.036774236 30 28 0 28"></polygon>
    </defs>
    <g id="Brainstorming-Demo-UPDATE" stroke="none" stroke-width="1" fill="none" fill-rule="evenodd">
        <g id="Order-Status-2b" transform="translate(-669.000000, -1320.000000)">
            <g id="Page-1" transform="translate(669.000000, 1320.000000)">
                <g id="Group-3">
                    <mask id="mask-2" fill="white">
                        <use xlink:href="#path-1"></use>
                    </mask>
                    <g id="Clip-2"></g>
                    <path d="M19.1685937,18.4768434 L28.4425781,12.0446764 L28.4613281,25.668167 L19.1685937,18.4768434 Z M3.03955078,26.4640334 L15.0116602,17.199833 L26.9408203,26.4312401 L3.03955078,26.4640334 Z M1.53855469,12.08162 L10.8355664,18.4915157 L1.55730469,25.6712067 L1.53855469,12.08162 Z M4.64730469,8.87453862 L4.64730469,12.3608017 L2.11921875,10.6177286 L4.64730469,8.87453862 Z M6.18386719,4.62263048 L23.8163672,4.62263048 L23.8163672,13.3862797 L17.8962891,17.4922839 L15.4825781,15.6244092 C15.4788281,15.6214864 15.4756055,15.6196743 15.4719727,15.6170438 C15.202207,15.4151399 14.8206445,15.4077161 14.5406836,15.6244092 L12.1094531,17.5057871 L6.18386719,13.4201837 L6.18386719,4.62263048 Z M15.0008789,1.73605846 L16.9526367,3.08964509 L13.0378711,3.08964509 L15.0008789,1.73605846 Z M25.3529297,8.91574948 L27.8078906,10.6178455 L25.3529297,12.3205261 L25.3529297,8.91574948 Z M29.9770898,10.6046931 C29.9770312,10.5596827 29.9669531,10.4916994 29.9494336,10.4525344 C29.9033203,10.2857035 29.8008398,10.1333111 29.6474414,10.0269228 L25.3529883,7.04875157 L25.3529883,3.85616701 C25.3529883,3.43295198 25.0089258,3.08970355 24.584707,3.08970355 L19.6441406,3.08970355 L15.4404492,0.174079332 C15.1777148,-0.00835908142 14.8289062,-0.00911899791 14.5653516,0.172559499 L10.3345312,3.08970355 L5.41558594,3.08970355 C4.99125,3.08970355 4.64730469,3.43295198 4.64730469,3.85616701 L4.64730469,7.01116493 L0.331992187,9.98658873 C0.119707031,10.1329603 0.00486328125,10.3669562 0.00123046875,10.6062129 C0.00099609375,10.610714 0,10.6149812 0,10.6196576 L0.0229101563,27.2346472 C0.023203125,27.4378956 0.104414062,27.6327265 0.248613281,27.7762923 C0.392636719,27.9195658 0.587753906,28 0.791191406,28 L0.792246094,28 L29.2327734,27.9610104 C29.6569922,27.9604259 30.0005859,27.6167683 30,27.1934948 L29.9770898,10.6046931 Z" id="Fill-1" fill="#8C8F93" mask="url(#mask-2)"></path>
                </g>
                <path d="M20.2277974,8 L9.77220259,8 C9.34581861,8 9,8.22391702 9,8.5 C9,8.77608298 9.34581861,9 9.77220259,9 L20.2277974,9 C20.6542992,9 21,8.77608298 21,8.5 C21,8.22391702 20.6542992,8 20.2277974,8" id="Fill-4" fill="#8C8F93"></path>
                <path d="M20.2277974,12 L9.77220259,12 C9.34581861,12 9,12.223917 9,12.5 C9,12.776083 9.34581861,13 9.77220259,13 L20.2277974,13 C20.6542992,13 21,12.776083 21,12.5 C21,12.223917 20.6542992,12 20.2277974,12" id="Fill-6" fill="#8C8F93"></path>
            </g>
        </g>
    </g>
</svg>